<svg id="visual" viewBox="0 0 900 600" width="900" height="600" xmlns="http://www.w3.org/2000/svg" xmlns:xlink="http://www.w3.org/1999/xlink" version="1.1"><rect x="0" y="0" width="900" height="600" fill="#14213d"></rect><path d="M0 357L21.5 368.3C43 379.7 86 402.3 128.8 406.8C171.7 411.3 214.3 397.7 257.2 387.2C300 376.7 343 369.3 385.8 369.2C428.7 369 471.3 376 514.2 376.7C557 377.3 600 371.7 642.8 381.3C685.7 391 728.3 416 771.2 426.8C814 437.7 857 434.3 878.5 432.7L900 431L900 601L878.5 601C857 601 814 601 771.2 601C728.3 601 685.7 601 642.8 601C600 601 557 601 514.2 601C471.3 601 428.7 601 385.8 601C343 601 300 601 257.2 601C214.3 601 171.7 601 128.8 601C86 601 43 601 21.5 601L0 601Z" fill="#fa7268"></path><path d="M0 414L21.5 413.2C43 412.3 86 410.7 128.8 419.5C171.7 428.3 214.3 447.7 257.2 448.7C300 449.7 343 432.3 385.8 432.7C428.7 433 471.3 451 514.2 450.3C557 449.7 600 430.3 642.8 428C685.7 425.7 728.3 440.3 771.2 447C814 453.7 857 452.3 878.5 451.7L900 451L900 601L878.5 601C857 601 814 601 771.2 601C728.3 601 685.7 601 642.8 601C600 601 557 601 514.2 601C471.3 601 428.7 601 385.8 601C343 601 300 601 257.2 601C214.3 601 171.7 601 128.8 601C86 601 43 601 21.5 601L0 601Z" fill="#ef5f67"></path><path d="M0 485L21.5 485.2C43 485.3 86 485.7 128.8 488.8C171.7 492 214.3 498 257.2 502.2C300 506.3 343 508.7 385.8 503C428.7 497.3 471.3 483.7 514.2 474.5C557 465.3 600 460.7 642.8 457.3C685.7 454 728.3 452 771.2 449.7C814 447.3 857 444.7 878.5 443.3L900 442L900 601L878.5 601C857 601 814 601 771.2 601C728.3 601 685.7 601 642.8 601C600 601 557 601 514.2 601C471.3 601 428.7 601 385.8 601C343 601 300 601 257.2 601C214.3 601 171.7 601 128.8 601C86 601 43 601 21.5 601L0 601Z" fill="#e34c67"></path><path d="M0 529L21.5 525.7C43 522.3 86 515.7 128.8 513.2C171.7 510.7 214.3 512.3 257.2 513.5C300 514.7 343 515.3 385.8 519.3C428.7 523.3 471.3 530.7 514.2 530C557 529.3 600 520.7 642.8 518.7C685.7 516.7 728.3 521.3 771.2 516.2C814 511 857 496 878.5 488.5L900 481L900 601L878.5 601C857 601 814 601 771.2 601C728.3 601 685.7 601 642.8 601C600 601 557 601 514.2 601C471.3 601 428.7 601 385.8 601C343 601 300 601 257.2 601C214.3 601 171.7 601 128.8 601C86 601 43 601 21.5 601L0 601Z" fill="#d53867"></path><path d="M0 566L21.5 565.3C43 564.7 86 563.3 128.8 556.8C171.7 550.3 214.3 538.7 257.2 534.7C300 530.7 343 534.3 385.8 541.8C428.7 549.3 471.3 560.7 514.2 562.8C557 565 600 558 642.8 555.8C685.7 553.7 728.3 556.3 771.2 554.5C814 552.7 857 546.3 878.5 543.2L900 540L900 601L878.5 601C857 601 814 601 771.2 601C728.3 601 685.7 601 642.8 601C600 601 557 601 514.2 601C471.3 601 428.7 601 385.8 601C343 601 300 601 257.2 601C214.3 601 171.7 601 128.8 601C86 601 43 601 21.5 601L0 601Z" fill="#c62368"></path></svg>